<?xml version="1.0" encoding="utf-8"?>
<!-- Generator: Adobe Illustrator 16.0.0, SVG Export Plug-In . SVG Version: 6.00 Build 0)  -->
<!DOCTYPE svg PUBLIC "-//W3C//DTD SVG 1.1//EN" "http://www.w3.org/Graphics/SVG/1.1/DTD/svg11.dtd">
<svg version="1.1" id="图层_1" xmlns="http://www.w3.org/2000/svg" xmlns:xlink="http://www.w3.org/1999/xlink" x="0px" y="0px"
	 width="520.667px" height="296.996px" viewBox="0 0 520.667 296.996" enable-background="new 0 0 520.667 296.996"
	 xml:space="preserve">
<text transform="matrix(1 0 0 1 105.5005 62.1069)" font-family="'TimesNewRomanPSMT'" font-size="12">dbSNP</text>
<text transform="matrix(1 0 0 1 182.334 62.1069)" font-family="'TimesNewRomanPSMT'" font-size="12">6,229</text>
<text transform="matrix(1 0 0 1 248.334 62.1069)" font-family="'TimesNewRomanPSMT'" font-size="12">18,666</text>
<text transform="matrix(1 0 0 1 342.3335 62.1069)" font-family="'TimesNewRomanPSMT'" font-size="12">46,826</text>
<text transform="matrix(1 0 0 1 442.3335 62.1069)" font-family="'TimesNewRomanPSMT'" font-size="12">7,115,796</text>
<text transform="matrix(1 0 0 1 185.667 85.7734)" font-family="'TimesNewRomanPSMT'" font-size="12">592</text>
<text transform="matrix(1 0 0 1 251.334 85.7734)" font-family="'TimesNewRomanPSMT'" font-size="12">1,800</text>
<text transform="matrix(1 0 0 1 345.0005 85.7734)" font-family="'TimesNewRomanPSMT'" font-size="12">4,626</text>
<text transform="matrix(1 0 0 1 446.3335 85.7734)" font-family="'TimesNewRomanPSMT'" font-size="12">228,377</text>
<text transform="matrix(1 0 0 1 189.0005 111.2739)" font-family="'TimesNewRomanPSMT'" font-size="12">17</text>
<text transform="matrix(1 0 0 1 258.3076 111.2739)" font-family="'TimesNewRomanPSMT'" font-size="12">48</text>
<text transform="matrix(1 0 0 1 352.3335 111.2739)" font-family="'TimesNewRomanPSMT'" font-size="12">86</text>
<text transform="matrix(1 0 0 1 449.6665 111.2739)" font-family="'TimesNewRomanPSMT'" font-size="12">37,320</text>
<text transform="matrix(1 0 0 1 185.667 134.1074)" font-family="'TimesNewRomanPSMT'" font-size="12">129</text>
<text transform="matrix(1 0 0 1 255.667 134.1074)" font-family="'TimesNewRomanPSMT'" font-size="12">452</text>
<text transform="matrix(1 0 0 1 348.3335 134.1074)" font-family="'TimesNewRomanPSMT'" font-size="12">1,275</text>
<text transform="matrix(1 0 0 1 446.3335 134.1074)" font-family="'TimesNewRomanPSMT'" font-size="12">233,829</text>
<text transform="matrix(1 0 0 1 182.334 203.4404)" font-family="'TimesNewRomanPSMT'" font-size="12">2,630 out of 2,652 mature miRNAs have SNVs on them  </text>
<rect x="5.53" y="6.107" fill="none" stroke="#000000" stroke-miterlimit="10" width="510.94" height="254"/>
<line fill="none" stroke="#000000" stroke-miterlimit="10" x1="5.53" y1="237.44" x2="516.47" y2="237.44"/>
<line fill="none" stroke="#000000" stroke-miterlimit="10" x1="5.53" y1="214.106" x2="516.47" y2="214.106"/>
<line fill="none" stroke="#000000" stroke-miterlimit="10" x1="5.863" y1="188.773" x2="516.804" y2="188.773"/>
<line fill="none" stroke="#000000" stroke-miterlimit="10" x1="5.196" y1="164.107" x2="516.136" y2="164.107"/>
<line fill="none" stroke="#000000" stroke-miterlimit="10" x1="5.863" y1="140.773" x2="516.804" y2="140.773"/>
<line fill="none" stroke="#000000" stroke-miterlimit="10" x1="81.667" y1="117.44" x2="516.47" y2="117.44"/>
<line fill="none" stroke="#000000" stroke-miterlimit="10" x1="81.667" y1="92.203" x2="516.47" y2="92.203"/>
<line fill="none" stroke="#000000" stroke-miterlimit="10" x1="5.53" y1="68.107" x2="516.47" y2="68.107"/>
<path fill="none" stroke="#000000" stroke-miterlimit="10" d="M516.47,40.832"/>
<text transform="matrix(1 0 0 1 182.334 229.918)" font-family="'TimesNewRomanPSMT'" font-size="12">1,897 out of 1,913 pre-miRNAs have SNVs on them</text>
<text transform="matrix(1 0 0 1 182.334 157.4414)" font-family="'TimesNewRomanPSMT'" font-size="12">2,108</text>
<text transform="matrix(1 0 0 1 454.8335 157.4414)" font-family="'TimesNewRomanPSMT'" font-size="12">4.6</text>
<text transform="matrix(1 0 0 1 182.334 181.0508)" font-family="'TimesNewRomanPSMT'" font-size="12">1,981</text>
<text transform="matrix(1 0 0 1 454.8335 181.0508)" font-family="'TimesNewRomanPSMT'" font-size="12">5.1</text>
<line fill="none" stroke="#000000" stroke-miterlimit="10" x1="81.667" y1="44.773" x2="81.667" y2="140.773"/>
<text transform="matrix(1 0 0 1 27.3384 111.2739)" font-family="'TimesNewRomanPSMT'" font-size="12">DRV</text>
<text transform="matrix(1 0 0 1 99.0005 85.7734)" font-family="'TimesNewRomanPSMT'" font-size="12">COSMIC</text>
<text transform="matrix(1 0 0 1 99.0005 111.2739)" font-family="'TimesNewRomanPSMT'" font-size="12">ClinVar</text>
<text transform="matrix(1 0 0 1 99.0005 134.1074)" font-family="'TimesNewRomanPSMT'" font-size="12">GWAS</text>
<text transform="matrix(1 0 0 1 36.167 203.4404)" font-family="'TimesNewRomanPSMT'" font-size="12">Mature miRNA</text>
<text transform="matrix(1 0 0 1 40.667 229.918)" font-family="'TimesNewRomanPSMT'" font-size="12">Pre-miRNA</text>
<text transform="matrix(1 0 0 1 52.0005 253.4404)" font-family="'TimesNewRomanPSMT'" font-size="12">Gene</text>
<text transform="matrix(1 0 0 1 29.9697 157.4414)" font-family="'TimesNewRomanPSMT'" font-size="12">Target gain (mean</text>
<text transform="matrix(0.583 0 0 0.5713 117.9248 153.5254)" font-family="'TimesNewRomanPSMT'" font-size="12">a</text>
<text transform="matrix(1 0 0 1 121.0298 157.4414)" font-family="'TimesNewRomanPSMT'" font-size="12">)</text>
<text transform="matrix(1 0 0 1 29.9697 181.0508)" font-family="'TimesNewRomanPSMT'" font-size="12">Target loss (mean</text>
<text transform="matrix(0.583 0 0 0.583 115.9385 177.0547)" font-family="'TimesNewRomanPSMT'" font-size="12">a</text>
<text transform="matrix(1 0 0 1 119.0435 181.0508)" font-family="'TimesNewRomanPSMT'" font-size="12"> )</text>
<line fill="none" stroke="#000000" stroke-miterlimit="10" x1="5.53" y1="44.773" x2="516.47" y2="44.773"/>
<line fill="none" stroke="#000000" stroke-miterlimit="10" x1="231" y1="141.107" x2="231" y2="187.106"/>
<line fill="none" stroke="#000000" stroke-miterlimit="10" x1="421" y1="142.387" x2="421" y2="188.386"/>
<text transform="matrix(1 0 0 1 253.3345 253.4404)" font-family="'TimesNewRomanPSMT'" font-size="12">34,116 3’UTR of 18,286 genes</text>
<line stroke="#000000" stroke-width="0.5" stroke-miterlimit="10" x1="230.852" y1="140.832" x2="420.851" y2="163.832"/>
<line fill="none" stroke="#000000" stroke-width="0.5" stroke-miterlimit="10" x1="230.725" y1="164.604" x2="420.732" y2="187.604"/>
<rect x="5.53" y="6.107" fill="#CAE9F8" stroke="#000000" stroke-miterlimit="10" width="510.94" height="38.667"/>
<text transform="matrix(1 0 0 1 27.3384 30.5322)"><tspan x="0" y="0" font-family="'TimesNewRomanPSMT'" font-size="18">miRNASNP-</tspan><tspan x="96.021" y="0" fill="#E60012" font-family="'TimesNewRomanPSMT'" font-size="16">v3</tspan></text>
<text transform="matrix(1 0 0 1 174.624 30.5317)" font-family="'TimesNewRomanPSMT'" font-size="14"> Seed</text>
<text transform="matrix(1 0 0 1 244.0684 19.9063)"><tspan x="0" y="0" font-family="'TimesNewRomanPSMT'" font-size="14">Mature </tspan><tspan x="0" y="16.8" font-family="'TimesNewRomanPSMT'" font-size="14">miRNA</tspan></text>
<text transform="matrix(1 0 0 1 319.605 30.5317)" font-family="'TimesNewRomanPSMT'" font-size="14">Pre-miRNA</text>
<text transform="matrix(1 0 0 1 437.0894 30.5317)" font-family="'TimesNewRomanPSMT'" font-size="14">3’UTR</text>
<line fill="none" stroke="#000000" stroke-miterlimit="10" x1="165.667" y1="6.441" x2="165.667" y2="260.106"/>
<line fill="none" stroke="#000000" stroke-miterlimit="10" x1="231" y1="5.44" x2="231" y2="140.773"/>
<line fill="none" stroke="#000000" stroke-miterlimit="10" x1="312.144" y1="6.107" x2="312.144" y2="140.773"/>
<line fill="none" stroke="#000000" stroke-miterlimit="10" x1="421" y1="6.774" x2="421" y2="140.773"/>
<text transform="matrix(0.583 0 0 0.583 5.8633 274)" font-family="'TimesNewRomanPSMT'" font-size="12">a </text>
<text transform="matrix(1 0 0 1 10.7173 277.9961)" font-family="'TimesNewRomanPSMT'" font-size="9">We provide the mean number of gain gene target for each variation in miRNA seed region and the mean number of </text>
<text transform="matrix(1 0 0 1 5.8633 288.7959)" font-family="'TimesNewRomanPSMT'" font-size="9">gain miRNA target for each variation in gene 3’UTR. </text>
<text transform="matrix(1 0 0 1 29.9697 62.1069)" font-family="'TimesNewRomanPSMT'" font-size="12">SNP</text>
</svg>
