<?xml version="1.0" encoding="utf-8"?>
<!-- Generator: Adobe Illustrator 16.0.0, SVG Export Plug-In . SVG Version: 6.00 Build 0)  -->
<!DOCTYPE svg PUBLIC "-//W3C//DTD SVG 1.1//EN" "http://www.w3.org/Graphics/SVG/1.1/DTD/svg11.dtd">
<svg version="1.1" id="图层_1" xmlns="http://www.w3.org/2000/svg" xmlns:xlink="http://www.w3.org/1999/xlink" x="0px" y="0px"
	 width="520.667px" height="296.996px" viewBox="0 0 520.667 296.996" enable-background="new 0 0 520.667 296.996"
	 xml:space="preserve">
<text transform="matrix(1 0 0 1 105.5005 62.1069)" font-family="'TimesNewRomanPSMT'" font-size="12">dbSNP</text>
<text transform="matrix(1 0 0 1 180.334 62.1069)" font-family="'TimesNewRomanPSMT'" font-size="12">4,666</text>
<text transform="matrix(1 0 0 1 248.334 62.1069)" font-family="'TimesNewRomanPSMT'" font-size="12">16,944</text>
<text transform="matrix(1 0 0 1 342.3335 62.1069)" font-family="'TimesNewRomanPSMT'" font-size="12">42,798</text>
<text transform="matrix(1 0 0 1 442.3335 62.1069)" font-family="'TimesNewRomanPSMT'" font-size="12">6,358,867</text>
<text transform="matrix(1 0 0 1 185.667 82.7734)" font-family="'TimesNewRomanPSMT'" font-size="12">522</text>
<text transform="matrix(1 0 0 1 248.3335 82.7734)" font-family="'TimesNewRomanPSMT'" font-size="12">2,065</text>
<text transform="matrix(1 0 0 1 345.0015 82.7734)" font-family="'TimesNewRomanPSMT'" font-size="12">5,160</text>
<text transform="matrix(1 0 0 1 446.3335 82.7734)" font-family="'TimesNewRomanPSMT'" font-size="12">170,880</text>
<text transform="matrix(1 0 0 1 189.0005 107.7739)" font-family="'TimesNewRomanPSMT'" font-size="12">11</text>
<text transform="matrix(1 0 0 1 258.3076 107.7739)" font-family="'TimesNewRomanPSMT'" font-size="12">41</text>
<text transform="matrix(1 0 0 1 352.3335 107.7739)" font-family="'TimesNewRomanPSMT'" font-size="12">75</text>
<text transform="matrix(1 0 0 1 449.6675 107.7739)" font-family="'TimesNewRomanPSMT'" font-size="12">32,062</text>
<text transform="matrix(1 0 0 1 185.667 134.1074)" font-family="'TimesNewRomanPSMT'" font-size="12">116</text>
<text transform="matrix(1 0 0 1 255.667 134.1074)" font-family="'TimesNewRomanPSMT'" font-size="12">312</text>
<text transform="matrix(1 0 0 1 348.3335 130.7739)" font-family="'TimesNewRomanPSMT'" font-size="12">768</text>
<text transform="matrix(1 0 0 1 446.3335 130.7739)" font-family="'TimesNewRomanPSMT'" font-size="12">235,055</text>
<text transform="matrix(1 0 0 1 281.0005 155.4404)" font-family="'TimesNewRomanPSMT'" font-size="12">2,652 mature miRNAs</text>
<rect x="5.53" y="6.107" fill="none" stroke="#000000" stroke-miterlimit="10" width="510.94" height="254"/>
<line fill="none" stroke="#000000" stroke-miterlimit="10" x1="5.53" y1="237.44" x2="516.47" y2="237.44"/>
<line fill="none" stroke="#000000" stroke-miterlimit="10" x1="5.53" y1="214.106" x2="516.47" y2="214.106"/>
<line fill="none" stroke="#000000" stroke-miterlimit="10" x1="5.863" y1="188.773" x2="516.804" y2="188.773"/>
<line fill="none" stroke="#000000" stroke-miterlimit="10" x1="5.196" y1="164.107" x2="516.136" y2="164.107"/>
<line fill="none" stroke="#000000" stroke-miterlimit="10" x1="5.863" y1="140.773" x2="516.804" y2="140.773"/>
<line fill="none" stroke="#000000" stroke-miterlimit="10" x1="81.667" y1="117.44" x2="516.47" y2="117.44"/>
<line fill="none" stroke="#000000" stroke-miterlimit="10" x1="81.667" y1="92.203" x2="516.47" y2="92.203"/>
<line fill="none" stroke="#000000" stroke-miterlimit="10" x1="5.53" y1="68.107" x2="516.47" y2="68.107"/>
<path fill="none" stroke="#000000" stroke-miterlimit="10" d="M516.47,40.832"/>
<text transform="matrix(1 0 0 1 288.3335 179.0508)" font-family="'TimesNewRomanPSMT'" font-size="12">1,913 pre-miRNAs</text>
<text transform="matrix(1 0 0 1 180.334 229.4395)" font-family="'TimesNewRomanPSMT'" font-size="12">2,657</text>
<text transform="matrix(1 0 0 1 460.3335 229.4395)" font-family="'TimesNewRomanPSMT'" font-size="12">4.7</text>
<text transform="matrix(1 0 0 1 177.667 253.4404)" font-family="'TimesNewRomanPSMT'" font-size="12">2,503</text>
<text transform="matrix(1 0 0 1 460.3335 253.4404)" font-family="'TimesNewRomanPSMT'" font-size="12">5.2</text>
<line fill="none" stroke="#000000" stroke-miterlimit="10" x1="81.667" y1="44.773" x2="81.667" y2="140.773"/>
<text transform="matrix(1 0 0 1 27.3384 111.2739)" font-family="'TimesNewRomanPSMT'" font-size="12">DRV</text>
<text transform="matrix(1 0 0 1 99.0005 82.7734)" font-family="'TimesNewRomanPSMT'" font-size="12">COSMIC</text>
<text transform="matrix(1 0 0 1 99.0005 107.7739)" font-family="'TimesNewRomanPSMT'" font-size="12">ClinVar</text>
<text transform="matrix(1 0 0 1 99.0005 134.1074)" font-family="'TimesNewRomanPSMT'" font-size="12">GWAS</text>
<text transform="matrix(1 0 0 1 43 155.4404)" font-family="'TimesNewRomanPSMT'" font-size="12">Mature miRNA</text>
<text transform="matrix(1 0 0 1 45.667 179.0498)" font-family="'TimesNewRomanPSMT'" font-size="12">Pre-miRNA</text>
<text transform="matrix(1 0 0 1 61.0005 203.4404)" font-family="'TimesNewRomanPSMT'" font-size="12">Gene</text>
<text transform="matrix(1 0 0 1 33.0005 229.918)" font-family="'TimesNewRomanPSMT'" font-size="12">Target gain (mean</text>
<text transform="matrix(0.583 0 0 0.5713 120.9556 226.002)" font-family="'TimesNewRomanPSMT'" font-size="12">a</text>
<text transform="matrix(1 0 0 1 124.0605 229.918)" font-family="'TimesNewRomanPSMT'" font-size="12">)</text>
<text transform="matrix(1 0 0 1 33.0005 253.4404)" font-family="'TimesNewRomanPSMT'" font-size="12">Target loss (mean</text>
<text transform="matrix(0.583 0 0 0.583 118.9692 249.4443)" font-family="'TimesNewRomanPSMT'" font-size="12">a</text>
<text transform="matrix(1 0 0 1 122.0742 253.4404)" font-family="'TimesNewRomanPSMT'" font-size="12"> )</text>
<line fill="none" stroke="#000000" stroke-miterlimit="10" x1="5.53" y1="44.773" x2="516.47" y2="44.773"/>
<line fill="none" stroke="#000000" stroke-miterlimit="10" x1="231" y1="214.107" x2="231" y2="260.106"/>
<line fill="none" stroke="#000000" stroke-miterlimit="10" x1="421" y1="214.441" x2="421" y2="260.44"/>
<text transform="matrix(1 0 0 1 265.6665 203.4404)" font-family="'TimesNewRomanPSMT'" font-size="12">34,115 3’UTR of 18,286 genes</text>
<line stroke="#000000" stroke-width="0.5" stroke-miterlimit="10" x1="231" y1="214.107" x2="421" y2="237.107"/>
<line fill="none" stroke="#000000" stroke-width="0.5" stroke-miterlimit="10" x1="230.996" y1="237.44" x2="421.003" y2="260.441"/>
<rect x="5.53" y="6.107" fill="#CAE9F8" stroke="#000000" stroke-miterlimit="10" width="510.94" height="38.667"/>
<text transform="matrix(1 0 0 1 27.3384 30.5322)"><tspan x="0" y="0" font-family="'TimesNewRomanPSMT'" font-size="18">miRNASNP-</tspan><tspan x="96.021" y="0" fill="#E60012" font-family="'TimesNewRomanPSMT'" font-size="16">v3</tspan></text>
<text transform="matrix(1 0 0 1 174.624 30.5317)" font-family="'TimesNewRomanPSMT'" font-size="14"> Seed</text>
<text transform="matrix(1 0 0 1 244.0684 19.9063)"><tspan x="0" y="0" font-family="'TimesNewRomanPSMT'" font-size="14">Mature </tspan><tspan x="0" y="16.8" font-family="'TimesNewRomanPSMT'" font-size="14">miRNA</tspan></text>
<text transform="matrix(1 0 0 1 319.605 30.5317)" font-family="'TimesNewRomanPSMT'" font-size="14">Pre-miRNA</text>
<text transform="matrix(1 0 0 1 437.0894 30.5317)" font-family="'TimesNewRomanPSMT'" font-size="14">3’UTR</text>
<line fill="none" stroke="#000000" stroke-miterlimit="10" x1="165.667" y1="6.441" x2="165.667" y2="260.106"/>
<line fill="none" stroke="#000000" stroke-miterlimit="10" x1="231" y1="5.44" x2="231" y2="140.773"/>
<line fill="none" stroke="#000000" stroke-miterlimit="10" x1="312.144" y1="6.107" x2="312.144" y2="140.773"/>
<line fill="none" stroke="#000000" stroke-miterlimit="10" x1="421" y1="6.774" x2="421" y2="140.773"/>
<text transform="matrix(0.583 0 0 0.583 5.8633 274)" font-family="'TimesNewRomanPSMT'" font-size="12">a </text>
<text transform="matrix(1 0 0 1 10.7173 277.9961)" font-family="'TimesNewRomanPSMT'" font-size="9">We provide the mean number of gain gene target for each variation in miRNA seed region and the mean number of gain miRNA target for </text>
<text transform="matrix(1 0 0 1 5.8633 288.7959)" font-family="'TimesNewRomanPSMT'" font-size="9">each variation in gene 3’UTR. </text>
<text transform="matrix(1 0 0 1 29.9697 62.1069)" font-family="'TimesNewRomanPSMT'" font-size="12">SNP</text>
</svg>
